<svg width="3600" height="4594" viewBox="0 0 3600 4594" fill="none" xmlns="http://www.w3.org/2000/svg">
<path d="M155.311 4464.98C128.039 4464.98 102.385 4458.27 78.3487 4444.86C54.7747 4430.99 35.8231 4410.88 21.4938 4384.52C7.16456 4358.16 0 4326.25 0 4288.79V4277.69C0 4240.24 7.16456 4208.33 21.4938 4181.97C35.8231 4155.61 54.7747 4135.73 78.3487 4122.32C101.923 4108.44 127.577 4101.51 155.311 4101.51C176.111 4101.51 193.445 4104.05 207.312 4109.14C221.642 4113.76 233.197 4119.77 241.98 4127.17C250.762 4134.57 257.465 4142.43 262.087 4150.75H274.568V3969.71H361.93V4455.27H275.954V4413.65H263.474C255.616 4426.6 243.367 4438.39 226.726 4449.03C210.548 4459.66 186.743 4464.98 155.311 4464.98ZM181.658 4388.68C208.468 4388.68 230.886 4380.12 248.913 4363.01C266.941 4345.44 275.954 4320.01 275.954 4286.71V4279.77C275.954 4246.48 266.941 4221.28 248.913 4204.17C231.349 4186.59 208.93 4177.81 181.658 4177.81C154.849 4177.81 132.43 4186.59 114.403 4204.17C96.3759 4221.28 87.3623 4246.48 87.3623 4279.77V4286.71C87.3623 4320.01 96.3759 4345.44 114.403 4363.01C132.43 4380.12 154.849 4388.68 181.658 4388.68Z" fill="black"/>
<path d="M615.485 4464.98C581.28 4464.98 551.004 4457.81 524.656 4443.48C498.771 4428.68 478.433 4408.1 463.641 4381.74C449.312 4354.92 442.147 4323.47 442.147 4287.4V4279.08C442.147 4243.01 449.312 4211.8 463.641 4185.44C477.971 4158.62 498.078 4138.04 523.963 4123.7C549.848 4108.9 579.894 4101.51 614.099 4101.51C647.842 4101.51 677.194 4109.14 702.155 4124.4C727.115 4139.19 746.529 4160 760.396 4186.82C774.263 4213.18 781.197 4243.94 781.197 4279.08V4308.91H530.896C531.821 4332.49 540.603 4351.68 557.244 4366.48C573.884 4381.28 594.223 4388.68 618.259 4388.68C642.757 4388.68 660.785 4383.36 672.34 4372.72C683.896 4362.09 692.679 4350.3 698.688 4337.35L770.103 4374.81C763.632 4386.83 754.156 4400.01 741.676 4414.34C729.658 4428.22 713.479 4440.24 693.141 4450.41C672.803 4460.12 646.917 4464.98 615.485 4464.98ZM531.59 4243.7H692.448C690.599 4223.82 682.51 4207.87 668.18 4195.84C654.313 4183.82 636.055 4177.81 613.405 4177.81C589.831 4177.81 571.111 4183.82 557.244 4195.84C543.377 4207.87 534.826 4223.82 531.59 4243.7Z" fill="black"/>
<path d="M920.907 4455.27L811.358 4111.22H904.267L984.002 4391.45H996.483L1076.22 4111.22H1169.13L1059.58 4455.27H920.907Z" fill="black"/>
<path d="M1228.65 4455.27V4111.22H1316.02V4455.27H1228.65ZM1272.33 4070.98C1256.62 4070.98 1243.21 4065.9 1232.12 4055.72C1221.49 4045.55 1216.17 4032.14 1216.17 4015.49C1216.17 3998.84 1221.49 3985.43 1232.12 3975.26C1243.21 3965.09 1256.62 3960 1272.33 3960C1288.51 3960 1301.92 3965.09 1312.55 3975.26C1323.18 3985.43 1328.5 3998.84 1328.5 4015.49C1328.5 4032.14 1323.18 4045.55 1312.55 4055.72C1301.92 4065.9 1288.51 4070.98 1272.33 4070.98Z" fill="black"/>
<path d="M1469.68 4455.27V4183.36H1382.32V4111.22H1469.68V4047.4C1469.68 4023.82 1476.61 4005.09 1490.48 3991.21C1504.81 3976.88 1523.3 3969.71 1545.95 3969.71H1636.08V4041.85H1576.46C1563.51 4041.85 1557.04 4048.79 1557.04 4062.66V4111.22H1647.18V4183.36H1557.04V4455.27H1469.68ZM1695.71 4455.27V3969.71H1783.07V4455.27H1695.71Z" fill="black"/>
<path d="M1917.47 4594V4517.7H2104.67C2117.61 4517.7 2124.08 4510.76 2124.08 4496.89V4410.18H2111.6C2107.91 4418.04 2102.13 4425.9 2094.27 4433.77C2086.41 4441.63 2075.78 4448.1 2062.38 4453.19C2048.97 4458.27 2031.87 4460.82 2011.07 4460.82C1984.26 4460.82 1960.68 4454.81 1940.35 4442.78C1920.47 4430.3 1904.99 4413.19 1893.89 4391.45C1882.8 4369.72 1877.25 4344.75 1877.25 4316.54V4111.22H1964.61V4309.6C1964.61 4335.5 1970.85 4354.92 1983.33 4367.87C1996.28 4380.82 2014.53 4387.29 2038.11 4387.29C2064.92 4387.29 2085.72 4378.5 2100.51 4360.93C2115.3 4342.9 2122.7 4317.93 2122.7 4286.02V4111.22H2210.06V4516.31C2210.06 4539.89 2203.13 4558.62 2189.26 4572.5C2175.39 4586.83 2156.9 4594 2133.79 4594H1917.47Z" fill="black"/>
<path d="M2322.19 4462.52C2308.79 4462.52 2297.47 4458.13 2288.22 4449.34C2279.44 4440.56 2275.05 4429.23 2275.05 4415.35C2275.05 4401.48 2279.44 4390.15 2288.22 4381.36C2297.47 4372.58 2308.79 4368.18 2322.19 4368.18C2336.06 4368.18 2347.39 4372.58 2356.17 4381.36C2364.95 4390.15 2369.34 4401.48 2369.34 4415.35C2369.34 4429.23 2364.95 4440.56 2356.17 4449.34C2347.39 4458.13 2336.06 4462.52 2322.19 4462.52Z" fill="#60A5FA"/>
<path d="M2606.53 4462.52C2577.41 4462.52 2550.6 4455.59 2526.11 4441.71C2501.61 4427.84 2482.19 4407.72 2467.86 4381.36C2453.53 4355.01 2446.37 4323.79 2446.37 4287.72V4278.7C2446.37 4242.63 2453.53 4211.65 2467.86 4185.75C2482.19 4159.39 2501.38 4139.28 2525.41 4125.41C2549.91 4111.07 2576.95 4103.9 2606.53 4103.9C2630.11 4103.9 2649.98 4107.14 2666.16 4113.61C2682.8 4119.63 2696.21 4127.49 2706.38 4137.2C2716.55 4146.45 2724.4 4156.39 2729.95 4167.03H2739.66V3967.25H2794.43V4452.81H2741.05V4396.62H2731.34C2722.09 4413.73 2707.76 4429 2688.35 4442.41C2668.94 4455.82 2641.66 4462.52 2606.53 4462.52ZM2621.09 4413.97C2656.22 4413.97 2684.65 4402.87 2706.38 4380.67C2728.56 4358.01 2739.66 4326.57 2739.66 4286.33V4280.09C2739.66 4239.86 2728.56 4208.64 2706.38 4186.45C2684.65 4163.79 2656.22 4152.46 2621.09 4152.46C2586.43 4152.46 2557.77 4163.79 2535.12 4186.45C2512.93 4208.64 2501.84 4239.86 2501.84 4280.09V4286.33C2501.84 4326.57 2512.93 4358.01 2535.12 4380.67C2557.77 4402.87 2586.43 4413.97 2621.09 4413.97Z" fill="#60A5FA"/>
<path d="M3064.53 4462.52C3030.33 4462.52 3000.28 4455.35 2974.4 4441.02C2948.51 4426.22 2928.4 4405.64 2914.07 4379.28C2899.75 4352.92 2892.58 4322.4 2892.58 4287.72V4279.4C2892.58 4244.25 2899.75 4213.5 2914.07 4187.14C2928.4 4160.78 2948.28 4140.43 2973.7 4126.1C2999.13 4111.3 3028.25 4103.9 3061.07 4103.9C3092.96 4103.9 3121.16 4110.84 3145.65 4124.71C3170.15 4138.12 3189.34 4157.55 3203.2 4182.98C3217.07 4208.41 3224 4238.24 3224 4272.46V4297.43H2947.36C2948.74 4333.96 2960.53 4362.64 2982.72 4383.45C3004.9 4403.79 3032.64 4413.97 3065.92 4413.97C3095.04 4413.97 3117.46 4407.26 3133.17 4393.85C3148.89 4380.44 3160.91 4364.49 3169.23 4345.99L3216.38 4368.88C3209.44 4383.21 3199.74 4397.55 3187.26 4411.88C3175.24 4426.22 3159.29 4438.24 3139.41 4447.96C3120 4457.67 3095.04 4462.52 3064.53 4462.52ZM2948.05 4252.34H3168.53C3166.69 4220.9 3155.82 4196.39 3135.95 4178.82C3116.53 4161.24 3091.57 4152.46 3061.07 4152.46C3030.1 4152.46 3004.67 4161.24 2984.8 4178.82C2964.92 4196.39 2952.67 4220.9 2948.05 4252.34Z" fill="#60A5FA"/>
<path d="M3391.3 4452.81L3269.96 4113.61H3328.21L3430.13 4411.88H3439.84L3541.76 4113.61H3600L3478.66 4452.81H3391.3Z" fill="#60A5FA"/>
<path d="M2790 0H810C362.649 0 0 362.649 0 810V2790C0 3237.35 362.649 3600 810 3600H2790C3237.35 3600 3600 3237.35 3600 2790V810C3600 362.649 3237.35 0 2790 0Z" fill="url(#paint0_linear_344_46)"/>
<path d="M1708 2448H1224V1152H1712C1849.33 1152 1967.56 1177.95 2066.67 1229.84C2165.78 1281.3 2242 1355.34 2295.33 1451.95C2349.11 1548.56 2376 1664.16 2376 1798.73C2376 1933.73 2349.11 2049.75 2295.33 2146.78C2242 2243.81 2165.33 2318.27 2065.33 2370.16C1965.78 2422.05 1846.67 2448 1708 2448ZM1512.67 2213.23H1696C1781.33 2213.23 1853.11 2198.88 1911.33 2170.2C1970 2141.09 2014 2096.16 2043.33 2035.41C2073.11 1974.23 2088 1895.34 2088 1798.73C2088 1702.97 2073.11 1624.71 2043.33 1563.96C2014 1503.21 1970.22 1458.49 1912 1429.8C1853.78 1401.12 1782 1386.77 1696.67 1386.77H1512.67V2213.23Z" fill="#F1F5F9"/>
<defs>
<linearGradient id="paint0_linear_344_46" x1="0" y1="0" x2="3600" y2="3600" gradientUnits="userSpaceOnUse">
<stop stop-color="#3B82F6"/>
<stop offset="0.5" stop-color="#22D3EE"/>
<stop offset="1" stop-color="#A78BFA"/>
</linearGradient>
</defs>
</svg>
