<svg width="3600" height="3600" viewBox="0 0 3600 3600" fill="none" xmlns="http://www.w3.org/2000/svg">
<path d="M2790 0H810C362.649 0 0 362.649 0 810V2790C0 3237.35 362.649 3600 810 3600H2790C3237.35 3600 3600 3237.35 3600 2790V810C3600 362.649 3237.35 0 2790 0Z" fill="url(#paint0_linear_344_39)"/>
<path d="M1708 2448H1224V1152H1712C1849.33 1152 1967.56 1177.95 2066.67 1229.84C2165.78 1281.3 2242 1355.34 2295.33 1451.95C2349.11 1548.56 2376 1664.16 2376 1798.73C2376 1933.73 2349.11 2049.75 2295.33 2146.78C2242 2243.81 2165.33 2318.27 2065.33 2370.16C1965.78 2422.05 1846.67 2448 1708 2448ZM1512.67 2213.23H1696C1781.33 2213.23 1853.11 2198.88 1911.33 2170.2C1970 2141.09 2014 2096.16 2043.33 2035.41C2073.11 1974.23 2088 1895.34 2088 1798.73C2088 1702.97 2073.11 1624.71 2043.33 1563.96C2014 1503.21 1970.22 1458.49 1912 1429.8C1853.78 1401.12 1782 1386.77 1696.67 1386.77H1512.67V2213.23Z" fill="#F1F5F9"/>
<defs>
<linearGradient id="paint0_linear_344_39" x1="0" y1="0" x2="3600" y2="3600" gradientUnits="userSpaceOnUse">
<stop stop-color="#3B82F6"/>
<stop offset="0.5" stop-color="#22D3EE"/>
<stop offset="1" stop-color="#A78BFA"/>
</linearGradient>
</defs>
</svg>
