<svg width="20451" height="3600" viewBox="0 0 20451 3600" fill="none" xmlns="http://www.w3.org/2000/svg">
<path d="M882.295 2867.4C727.369 2867.4 581.632 2829.32 445.086 2753.17C311.166 2674.4 203.505 2560.18 122.103 2410.5C40.7007 2260.83 0 2079.65 0 1866.96V1803.94C0 1591.25 40.7007 1410.07 122.103 1260.39C203.505 1110.72 311.166 997.812 445.086 921.663C579.006 842.888 724.743 803.501 882.295 803.501C1000.46 803.501 1098.93 817.943 1177.71 846.827C1259.11 873.085 1324.76 907.221 1374.65 949.234C1424.54 991.247 1462.61 1035.89 1488.87 1083.15H1559.77V55.1422H2056.06V2812.25H1567.65V2575.93H1496.75C1452.11 2649.45 1382.52 2716.41 1287.99 2776.81C1196.09 2837.2 1060.86 2867.4 882.295 2867.4ZM1031.97 2434.14C1184.27 2434.14 1311.63 2385.56 1414.04 2288.4C1516.45 2188.62 1567.65 2044.2 1567.65 1855.14V1815.75C1567.65 1626.7 1516.45 1483.59 1414.04 1386.43C1314.25 1286.65 1186.9 1236.76 1031.97 1236.76C879.669 1236.76 752.314 1286.65 649.905 1386.43C547.496 1483.59 496.291 1626.7 496.291 1815.75V1855.14C496.291 2044.2 547.496 2188.62 649.905 2288.4C752.314 2385.56 879.669 2434.14 1031.97 2434.14Z" fill="#F1F5F9"/>
<path d="M3496.47 2867.4C3302.16 2867.4 3130.16 2826.7 2980.49 2745.3C2833.44 2661.27 2717.9 2544.42 2633.87 2394.75C2552.47 2242.45 2511.77 2063.89 2511.77 1859.08V1811.82C2511.77 1607 2552.47 1429.76 2633.87 1280.09C2715.27 1127.79 2829.5 1010.94 2976.55 929.54C3123.6 845.514 3294.28 803.501 3488.59 803.501C3680.28 803.501 3847.03 846.827 3988.82 933.479C4130.62 1017.51 4240.91 1135.67 4319.68 1287.96C4398.46 1437.64 4437.85 1612.25 4437.85 1811.82V1981.18H3015.93C3021.19 2115.1 3071.08 2224.07 3165.61 2308.1C3260.14 2392.12 3375.68 2434.14 3512.23 2434.14C3651.4 2434.14 3753.81 2403.94 3819.45 2343.54C3885.1 2283.15 3934.99 2216.19 3969.13 2142.67L4374.83 2355.36C4338.06 2423.63 4284.23 2498.47 4213.34 2579.87C4145.06 2658.64 4053.16 2726.91 3937.62 2784.68C3822.08 2839.83 3675.03 2867.4 3496.47 2867.4ZM3019.87 1610.94H3933.68C3923.18 1498.03 3877.22 1407.44 3795.82 1339.17C3717.05 1270.9 3613.32 1236.76 3484.65 1236.76C3350.73 1236.76 3244.39 1270.9 3165.61 1339.17C3086.83 1407.44 3038.26 1498.03 3019.87 1610.94Z" fill="#F1F5F9"/>
<path d="M5231.52 2812.25L4609.19 858.643H5136.99L5589.95 2449.89H5660.85L6113.82 858.643H6641.62L6019.28 2812.25H5231.52Z" fill="#F1F5F9"/>
<path d="M6979.77 2812.25V858.643H7476.06V2812.25H6979.77ZM7227.92 630.197C7138.64 630.197 7062.49 601.313 6999.46 543.545C6939.07 485.777 6908.87 409.628 6908.87 315.098C6908.87 220.569 6939.07 144.42 6999.46 86.6521C7062.49 28.884 7138.64 0 7227.92 0C7319.82 0 7395.97 28.884 7456.37 86.6521C7516.76 144.42 7546.96 220.569 7546.96 315.098C7546.96 409.628 7516.76 485.777 7456.37 543.545C7395.97 601.313 7319.82 630.197 7227.92 630.197Z" fill="#F1F5F9"/>
<path d="M8349 2812.25V1268.27H7852.71V858.643H8349V496.28C8349 362.363 8388.39 256.017 8467.17 177.243C8548.57 95.8425 8653.61 55.1422 8782.27 55.1422H9294.32V464.77H8955.58C8882.06 464.77 8845.29 504.157 8845.29 582.932V858.643H9357.34V1268.27H8845.29V2812.25H8349ZM9633.06 2812.25V55.1422H10129.3V2812.25H9633.06Z" fill="#F1F5F9"/>
<path d="M10892.8 3600V3166.74H11956.3C12029.8 3166.74 12066.6 3127.35 12066.6 3048.58V2556.24H11995.7C11974.7 2600.88 11941.8 2645.51 11897.2 2690.15C11852.6 2734.79 11792.2 2771.55 11716 2800.44C11639.9 2829.32 11542.7 2843.76 11424.5 2843.76C11272.2 2843.76 11138.3 2809.63 11022.8 2741.36C10909.9 2670.46 10821.9 2573.3 10758.9 2449.89C10695.9 2326.48 10664.4 2184.68 10664.4 2024.51V858.643H11160.6V1985.12C11160.6 2132.17 11196.1 2242.45 11267 2315.97C11340.5 2389.5 11444.2 2426.26 11578.2 2426.26C11730.5 2426.26 11848.6 2376.37 11932.6 2276.59C12016.7 2174.18 12058.7 2032.38 12058.7 1851.2V858.643H12555V3158.86C12555 3292.78 12515.6 3399.12 12436.8 3477.9C12358 3559.3 12253 3600 12121.7 3600H10892.8Z" fill="#F1F5F9"/>
<path d="M13192 2853.44C13115.9 2853.44 13051.5 2828.49 12999 2778.6C12949.1 2728.71 12924.2 2664.38 12924.2 2585.6C12924.2 2506.83 12949.1 2442.49 12999 2392.6C13051.5 2342.71 13115.9 2317.77 13192 2317.77C13270.8 2317.77 13335.1 2342.71 13385 2392.6C13434.9 2442.49 13459.8 2506.83 13459.8 2585.6C13459.8 2664.38 13434.9 2728.71 13385 2778.6C13335.1 2828.49 13270.8 2853.44 13192 2853.44Z" fill="#60A5FA"/>
<path d="M14807.3 2853.44C14641.9 2853.44 14489.6 2814.05 14350.4 2735.27C14211.2 2656.5 14100.9 2542.28 14019.5 2392.6C13938.1 2242.93 13897.4 2065.69 13897.4 1860.88V1809.67C13897.4 1604.86 13938.1 1428.93 14019.5 1281.88C14100.9 1132.21 14209.9 1017.99 14346.4 939.213C14485.6 857.812 14639.2 817.112 14807.3 817.112C14941.2 817.112 15054.1 835.493 15146 872.254C15240.6 906.39 15316.7 951.029 15374.5 1006.17C15432.2 1058.69 15476.9 1115.14 15508.4 1175.54H15563.5V41.1822H15874.7V2798.29H15571.4V2479.26H15516.3C15463.8 2576.41 15382.4 2663.06 15272.1 2739.21C15161.8 2815.36 15006.9 2853.44 14807.3 2853.44ZM14890 2577.72C15089.6 2577.72 15251.1 2514.71 15374.5 2388.67C15500.5 2260 15563.5 2081.44 15563.5 1853V1817.55C15563.5 1589.1 15500.5 1411.86 15374.5 1285.82C15251.1 1157.16 15089.6 1092.82 14890 1092.82C14693.1 1092.82 14530.3 1157.16 14401.6 1285.82C14275.5 1411.86 14212.5 1589.1 14212.5 1817.55V1853C14212.5 2081.44 14275.5 2260 14401.6 2388.67C14530.3 2514.71 14693.1 2577.72 14890 2577.72Z" fill="#60A5FA"/>
<path d="M17409.1 2853.44C17214.8 2853.44 17044.1 2812.74 16897 2731.34C16750 2647.31 16635.8 2530.46 16554.4 2380.79C16473 2231.12 16432.3 2057.81 16432.3 1860.88V1813.61C16432.3 1614.05 16473 1439.43 16554.4 1289.76C16635.8 1140.09 16748.7 1024.55 16893.1 943.152C17037.5 859.125 17203 817.112 17389.4 817.112C17570.6 817.112 17730.8 856.499 17869.9 935.274C18009.1 1011.42 18118.1 1121.71 18196.9 1266.13C18275.6 1410.55 18315 1579.91 18315 1774.22V1916.02H16743.4C16751.3 2123.46 16818.3 2286.26 16944.3 2404.42C17070.4 2519.96 17227.9 2577.72 17417 2577.72C17582.4 2577.72 17709.8 2539.65 17799 2463.5C17888.3 2387.35 17956.6 2296.76 18003.9 2191.73L18271.7 2321.71C18232.3 2403.11 18177.2 2484.51 18106.3 2565.91C18038 2647.31 17947.4 2715.58 17834.5 2770.72C17724.2 2825.86 17582.4 2853.44 17409.1 2853.44ZM16747.4 1660H17999.9C17989.4 1481.44 17927.7 1342.28 17814.8 1242.49C17704.5 1142.71 17562.7 1092.82 17389.4 1092.82C17213.5 1092.82 17069 1142.71 16956.1 1242.49C16843.2 1342.28 16773.6 1481.44 16747.4 1660Z" fill="#60A5FA"/>
<path d="M19265.4 2798.29L18576.1 872.254H18907L19486 2565.91H19541.1L20120.1 872.254H20451L19761.7 2798.29H19265.4Z" fill="#60A5FA"/>
</svg>
