<svg width="21004" height="3600" viewBox="0 0 21004 3600" fill="none" xmlns="http://www.w3.org/2000/svg">
<path d="M4695.31 2689.5C4566.19 2689.5 4444.74 2657.77 4330.94 2594.31C4219.33 2528.67 4129.6 2433.48 4061.76 2308.75C3993.92 2184.03 3960 2033.04 3960 1855.8V1803.28C3960 1626.04 3993.92 1475.05 4061.76 1350.33C4129.6 1225.6 4219.33 1131.51 4330.94 1068.05C4442.55 1002.41 4564.01 969.584 4695.31 969.584C4793.79 969.584 4875.86 981.619 4941.51 1005.69C5009.35 1027.57 5064.06 1056.02 5105.64 1091.03C5147.22 1126.04 5178.95 1163.24 5200.84 1202.63H5259.92V345.952H5673.54V2643.54H5266.49V2446.61H5207.4C5170.2 2507.88 5112.21 2563.68 5033.42 2614C4956.83 2664.33 4844.12 2689.5 4695.31 2689.5ZM4820.05 2328.45C4946.98 2328.45 5053.12 2287.96 5138.47 2207C5223.82 2123.85 5266.49 2003.5 5266.49 1845.95V1813.13C5266.49 1655.58 5223.82 1536.32 5138.47 1455.36C5055.31 1372.21 4949.17 1330.63 4820.05 1330.63C4693.12 1330.63 4586.98 1372.21 4501.64 1455.36C4416.29 1536.32 4373.61 1655.58 4373.61 1813.13V1845.95C4373.61 2003.5 4416.29 2123.85 4501.64 2207C4586.98 2287.96 4693.12 2328.45 4820.05 2328.45Z" fill="#F1F5F9"/>
<path d="M6873.98 2689.5C6712.04 2689.5 6568.7 2655.58 6443.96 2587.75C6321.4 2517.72 6225.11 2420.35 6155.08 2295.62C6087.24 2168.71 6053.32 2019.91 6053.32 1849.23V1809.85C6053.32 1639.17 6087.24 1491.47 6155.08 1366.74C6222.93 1239.82 6318.12 1142.45 6440.67 1074.62C6563.23 1004.59 6705.47 969.584 6867.42 969.584C7027.17 969.584 7166.14 1005.69 7284.31 1077.9C7402.49 1147.92 7494.4 1246.39 7560.05 1373.3C7625.71 1498.03 7658.53 1643.54 7658.53 1809.85V1950.98H6473.5C6477.88 2062.58 6519.46 2153.39 6598.24 2223.41C6677.02 2293.44 6773.31 2328.45 6887.11 2328.45C7003.1 2328.45 7088.45 2303.28 7143.16 2252.95C7197.87 2202.63 7239.45 2146.83 7267.9 2085.56L7606.01 2262.8C7575.37 2319.69 7530.51 2382.06 7471.42 2449.89C7414.52 2515.54 7337.93 2572.43 7241.64 2620.57C7145.35 2666.52 7022.79 2689.5 6873.98 2689.5ZM6476.78 1642.45H7238.36C7229.6 1548.36 7191.3 1472.87 7123.46 1415.97C7057.81 1359.08 6971.37 1330.63 6864.13 1330.63C6752.52 1330.63 6663.89 1359.08 6598.24 1415.97C6532.59 1472.87 6492.1 1548.36 6476.78 1642.45Z" fill="#F1F5F9"/>
<path d="M8319.98 2643.54L7801.33 1015.54H8241.2L8618.7 2341.58H8677.79L9055.29 1015.54H9495.17L8976.51 2643.54H8319.98Z" fill="#F1F5F9"/>
<path d="M9776.99 2643.54V1015.54H10190.6V2643.54H9776.99ZM9983.79 825.164C9909.39 825.164 9845.92 801.094 9793.4 752.954C9743.07 704.814 9717.9 641.357 9717.9 562.582C9717.9 483.807 9743.07 420.35 9793.4 372.21C9845.92 324.07 9909.39 300 9983.79 300C10060.4 300 10123.9 324.07 10174.2 372.21C10224.5 420.35 10249.7 483.807 10249.7 562.582C10249.7 641.357 10224.5 704.814 10174.2 752.954C10123.9 801.094 10060.4 825.164 9983.79 825.164Z" fill="#F1F5F9"/>
<path d="M10918.1 2643.54V1356.89H10504.5V1015.54H10918.1V713.567C10918.1 601.969 10950.9 513.348 11016.6 447.702C11084.4 379.869 11172 345.952 11279.2 345.952H11705.9V687.309H11423.6C11362.4 687.309 11331.7 720.131 11331.7 785.777V1015.54H11758.5V1356.89H11331.7V2643.54H10918.1ZM11988.3 2643.54V345.952H12401.9V2643.54H11988.3Z" fill="#F1F5F9"/>
<path d="M13038.1 3300V2938.95H13924.4C13985.7 2938.95 14016.4 2906.13 14016.4 2840.48V2430.2H13957.3C13939.8 2467.4 13912.4 2504.59 13875.2 2541.79C13838 2578.99 13787.7 2609.63 13724.2 2633.7C13660.7 2657.77 13579.8 2669.8 13481.3 2669.8C13354.4 2669.8 13242.8 2641.36 13146.5 2584.46C13052.4 2525.38 12979 2444.42 12926.5 2341.58C12874 2238.73 12847.7 2120.57 12847.7 1987.09V1015.54H13261.4V1954.27C13261.4 2076.8 13290.9 2168.71 13350 2229.98C13411.3 2291.25 13497.7 2321.88 13609.3 2321.88C13736.2 2321.88 13834.7 2280.31 13904.7 2197.16C13974.8 2111.82 14009.8 1993.65 14009.8 1842.67V1015.54H14423.4V2932.39C14423.4 3043.98 14390.6 3132.6 14324.9 3198.25C14259.3 3266.08 14171.7 3300 14062.3 3300H13038.1Z" fill="#F1F5F9"/>
<path d="M14954.3 2677.86C14890.8 2677.86 14837.2 2657.08 14793.5 2615.5C14751.9 2573.92 14731.1 2520.31 14731.1 2454.67C14731.1 2389.02 14751.9 2335.41 14793.5 2293.84C14837.2 2252.26 14890.8 2231.47 14954.3 2231.47C15020 2231.47 15073.6 2252.26 15115.2 2293.84C15156.7 2335.41 15177.5 2389.02 15177.5 2454.67C15177.5 2520.31 15156.7 2573.92 15115.2 2615.5C15073.6 2657.08 15020 2677.86 14954.3 2677.86Z" fill="#60A5FA"/>
<path d="M16300.5 2677.86C16162.6 2677.86 16035.7 2645.04 15919.7 2579.39C15803.7 2513.75 15711.8 2418.56 15644 2293.84C15576.1 2169.11 15542.2 2021.41 15542.2 1850.73V1808.06C15542.2 1637.38 15576.1 1490.77 15644 1368.24C15711.8 1243.51 15802.6 1148.32 15916.4 1082.68C16032.4 1014.84 16160.4 980.927 16300.5 980.927C16412.1 980.927 16506.2 996.244 16582.8 1026.88C16661.6 1055.33 16725 1092.52 16773.2 1138.48C16821.3 1182.24 16858.5 1229.29 16884.8 1279.61H16930.8V334.319H17190.1V2631.91H16937.3V2366.05H16891.4C16847.6 2447.01 16779.8 2519.22 16687.8 2582.68C16595.9 2646.13 16466.8 2677.86 16300.5 2677.86ZM16369.4 2448.1C16535.7 2448.1 16670.3 2395.59 16773.2 2290.55C16878.2 2183.33 16930.8 2034.54 16930.8 1844.17V1814.62C16930.8 1624.25 16878.2 1476.55 16773.2 1371.52C16670.3 1264.3 16535.7 1210.69 16369.4 1210.69C16205.3 1210.69 16069.6 1264.3 15962.4 1371.52C15857.3 1476.55 15804.8 1624.25 15804.8 1814.62V1844.17C15804.8 2034.54 15857.3 2183.33 15962.4 2290.55C16069.6 2395.59 16205.3 2448.1 16369.4 2448.1Z" fill="#60A5FA"/>
<path d="M18468.9 2677.86C18306.9 2677.86 18164.7 2643.95 18042.1 2576.11C17919.6 2506.09 17824.4 2408.72 17756.5 2283.99C17688.7 2159.26 17654.8 2014.84 17654.8 1850.73V1811.34C17654.8 1645.04 17688.7 1499.53 17756.5 1374.8C17824.4 1250.07 17918.5 1153.79 18038.8 1085.96C18159.2 1015.94 18297.1 980.927 18452.4 980.927C18603.4 980.927 18736.9 1013.75 18852.9 1079.4C18968.9 1142.85 19059.7 1234.76 19125.4 1355.11C19191 1475.46 19223.9 1616.59 19223.9 1778.52V1896.68H17914.1C17920.7 2069.55 17976.5 2205.22 18081.5 2303.68C18186.5 2399.96 18317.9 2448.1 18475.4 2448.1C18613.3 2448.1 18719.4 2416.38 18793.8 2352.92C18868.2 2289.46 18925.1 2213.97 18964.5 2126.44L19187.8 2234.76C19154.9 2302.59 19109 2370.42 19049.9 2438.26C18993 2506.09 18917.5 2562.98 18823.4 2608.94C18731.5 2654.89 18613.3 2677.86 18468.9 2677.86ZM17917.4 1683.33H18961.3C18952.5 1534.54 18901.1 1418.56 18807 1335.41C18715.1 1252.26 18596.9 1210.69 18452.4 1210.69C18305.8 1210.69 18185.5 1252.26 18091.4 1335.41C17997.2 1418.56 17939.3 1534.54 17917.4 1683.33Z" fill="#60A5FA"/>
<path d="M20015.9 2631.91L19441.5 1026.88H19717.2L20199.8 2438.26H20245.7L20728.3 1026.88H21004L20429.5 2631.91H20015.9Z" fill="#60A5FA"/>
<path d="M2790 0H810C362.649 0 0 362.649 0 810V2790C0 3237.35 362.649 3600 810 3600H2790C3237.35 3600 3600 3237.35 3600 2790V810C3600 362.649 3237.35 0 2790 0Z" fill="url(#paint0_linear_344_33)"/>
<path d="M1708 2448H1224V1152H1712C1849.33 1152 1967.56 1177.95 2066.67 1229.84C2165.78 1281.3 2242 1355.34 2295.33 1451.95C2349.11 1548.56 2376 1664.16 2376 1798.73C2376 1933.73 2349.11 2049.75 2295.33 2146.78C2242 2243.81 2165.33 2318.27 2065.33 2370.16C1965.78 2422.05 1846.67 2448 1708 2448ZM1512.67 2213.23H1696C1781.33 2213.23 1853.11 2198.88 1911.33 2170.2C1970 2141.09 2014 2096.16 2043.33 2035.41C2073.11 1974.23 2088 1895.34 2088 1798.73C2088 1702.97 2073.11 1624.71 2043.33 1563.96C2014 1503.21 1970.22 1458.49 1912 1429.8C1853.78 1401.12 1782 1386.77 1696.67 1386.77H1512.67V2213.23Z" fill="#F1F5F9"/>
<defs>
<linearGradient id="paint0_linear_344_33" x1="0" y1="0" x2="3600" y2="3600" gradientUnits="userSpaceOnUse">
<stop stop-color="#3B82F6"/>
<stop offset="0.5" stop-color="#22D3EE"/>
<stop offset="1" stop-color="#A78BFA"/>
</linearGradient>
</defs>
</svg>
